<svg version="1.1" width="524" height="524" xmlns="http://www.w3.org/2000/svg">
<rect x="0" y="0" width="524" height="524" fill="#aca9b9" />
<g transform="scale(2.04688, 2.04688)">
<path d="M 76 21 L 192 25 L 183 130 Z" fill="#000000" fill-opacity="0.501961" />
<path d="M 10 235 L -16 0 L 111 -16 Z" fill="#ffffff" fill-opacity="0.501961" />
<path d="M 255 212 L 271 0 L 161 -7 Z" fill="#ffffff" fill-opacity="0.501961" />
<path d="M 163 271 L 271 243 L 133 118 Z" fill="#14126a" fill-opacity="0.501961" />
<path d="M 68 75 L 199 70 L 130 0 Z" fill="#000000" fill-opacity="0.501961" />
<path d="M 134 150 L -16 206 L 15 -16 Z" fill="#fffff7" fill-opacity="0.501961" />
<path d="M 164 160 L 271 185 L 244 -16 Z" fill="#fffffc" fill-opacity="0.501961" />
<path d="M 210 271 L -16 252 L 36 179 Z" fill="#3d3c95" fill-opacity="0.501961" />
<path d="M 237 178 L 271 239 L 161 163 Z" fill="#15145b" fill-opacity="0.501961" />
<path d="M 269 65 L 264 -13 L 106 0 Z" fill="#fffff3" fill-opacity="0.501961" />
<path d="M 131 6 L 189 43 L 186 111 Z" fill="#000000" fill-opacity="0.501961" />
<path d="M 120 11 L 81 104 L 86 38 Z" fill="#000015" fill-opacity="0.501961" />
<path d="M 191 95 L 137 199 L 134 65 Z" fill="#494792" fill-opacity="0.501961" />
<path d="M 1 79 L 168 -16 L -16 -16 Z" fill="#ffffed" fill-opacity="0.501961" />
<path d="M 192 -16 L 190 165 L 271 189 Z" fill="#ffffea" fill-opacity="0.501961" />
<path d="M 79 159 L 140 244 L 181 203 Z" fill="#c7c7eb" fill-opacity="0.501961" />
<path d="M -16 200 L 94 -16 L 60 180 Z" fill="#ffffe9" fill-opacity="0.501961" />
<path d="M 106 214 L 80 173 L 6 202 Z" fill="#565497" fill-opacity="0.501961" />
<path d="M 242 184 L 207 271 L 271 250 Z" fill="#2c2b58" fill-opacity="0.501961" />
<path d="M 127 197 L 139 60 L 72 100 Z" fill="#b0b0dc" fill-opacity="0.501961" />
<path d="M 137 8 L 170 91 L 100 22 Z" fill="#000005" fill-opacity="0.501961" />
<path d="M 171 189 L 111 164 L 165 156 Z" fill="#2d2c5c" fill-opacity="0.501961" />
<path d="M 103 157 L 2 -16 L 0 203 Z" fill="#fff8e6" fill-opacity="0.501961" />
<path d="M 257 71 L 87 -16 L 260 -16 Z" fill="#fff9e6" fill-opacity="0.501961" />
<path d="M 158 19 L 80 82 L 190 47 Z" fill="#010016" fill-opacity="0.501961" />
<path d="M 271 206 L 174 137 L 269 0 Z" fill="#fff7e5" fill-opacity="0.501961" />
<path d="M 171 104 L 153 135 L 135 73 Z" fill="#9593c7" fill-opacity="0.501961" />
<path d="M 90 122 L 87 86 L 82 107 Z" fill="#343268" fill-opacity="0.501961" />
<path d="M 173 129 L 216 159 L 164 161 Z" fill="#fffff0" fill-opacity="0.501961" />
<path d="M 89 119 L 132 85 L 128 137 Z" fill="#e2e1ee" fill-opacity="0.501961" />
<path d="M 94 27 L 79 63 L 139 12 Z" fill="#08071c" fill-opacity="0.501961" />
<path d="M 31 271 L 50 269 L 8 214 Z" fill="#2b2956" fill-opacity="0.501961" />
<path d="M 101 -4 L 70 90 L -14 -1 Z" fill="#fef5e6" fill-opacity="0.501961" />
<path d="M 190 68 L 160 139 L 183 123 Z" fill="#26254b" fill-opacity="0.501961" />
<path d="M 213 170 L 246 216 L 118 269 Z" fill="#5e5c9a" fill-opacity="0.501961" />
<path d="M 186 92 L 218 -16 L 271 146 Z" fill="#faf3e6" fill-opacity="0.501961" />
<path d="M 86 171 L 85 201 L 76 173 Z" fill="#1f1e4f" fill-opacity="0.501961" />
<path d="M 216 44 L 197 55 L 150 -3 Z" fill="#fffcef" fill-opacity="0.501961" />
<path d="M 16 197 L 114 209 L -16 228 Z" fill="#7b79b0" fill-opacity="0.501961" />
<path d="M 190 49 L 185 95 L 121 27 Z" fill="#000003" fill-opacity="0.501961" />
<path d="M 120 84 L 115 103 L 97 59 Z" fill="#595790" fill-opacity="0.501961" />
<path d="M 80 20 L 120 -16 L 180 -2 Z" fill="#fffff0" fill-opacity="0.501961" />
<path d="M 157 143 L 80 187 L 101 148 Z" fill="#a6a5cc" fill-opacity="0.501961" />
<path d="M 160 56 L 80 57 L 82 81 Z" fill="#2f2e59" fill-opacity="0.501961" />
<path d="M 163 200 L 137 189 L 168 106 Z" fill="#514f85" fill-opacity="0.501961" />
<path d="M 146 80 L 143 135 L 133 94 Z" fill="#464382" fill-opacity="0.501961" />
<path d="M 58 210 L 73 185 L 126 243 Z" fill="#9593c0" fill-opacity="0.501961" />
<path d="M 119 170 L 160 155 L 189 172 Z" fill="#33314f" fill-opacity="0.501961" />
<path d="M 91 132 L 2 -16 L -12 219 Z" fill="#f8f1e6" fill-opacity="0.501961" />
<path d="M 148 95 L 177 114 L 177 75 Z" fill="#555290" fill-opacity="0.501961" />
<path d="M 120 212 L 83 183 L 111 163 Z" fill="#d1d1e9" fill-opacity="0.501961" />
<path d="M 89 208 L 114 223 L 83 188 Z" fill="#3c3a71" fill-opacity="0.501961" />
<path d="M 145 82 L 122 71 L 104 78 Z" fill="#d9d8f1" fill-opacity="0.501961" />
<path d="M 181 80 L 174 32 L 135 74 Z" fill="#04040b" fill-opacity="0.501961" />
<path d="M 64 62 L 75 34 L 85 111 Z" fill="#f7f1ea" fill-opacity="0.501961" />
<path d="M 229 176 L 271 248 L 218 271 Z" fill="#434170" fill-opacity="0.501961" />
<path d="M 166 162 L 174 128 L 235 124 Z" fill="#fff8e9" fill-opacity="0.501961" />
<path d="M 192 169 L 222 174 L 168 230 Z" fill="#4b497c" fill-opacity="0.501961" />
<path d="M -16 244 L -16 201 L 18 262 Z" fill="#bebdda" fill-opacity="0.501961" />
<path d="M 103 211 L 127 232 L 158 178 Z" fill="#a9a8cf" fill-opacity="0.501961" />
<path d="M 271 10 L 221 68 L 147 7 Z" fill="#f7f1e5" fill-opacity="0.501961" />
<path d="M 222 271 L 83 249 L 204 226 Z" fill="#6663a4" fill-opacity="0.501961" />
<path d="M 149 91 L 156 87 L 142 86 Z" fill="#dcdbf6" fill-opacity="0.501961" />
<path d="M 20 269 L 9 241 L 33 271 Z" fill="#0d0b29" fill-opacity="0.501961" />
<path d="M 112 38 L 83 95 L 83 51 Z" fill="#262445" fill-opacity="0.501961" />
<path d="M 31 208 L 54 205 L 85 242 Z" fill="#514e91" fill-opacity="0.501961" />
<path d="M 94 159 L 63 74 L 64 179 Z" fill="#fffaea" fill-opacity="0.501961" />
<path d="M 179 201 L 146 212 L 180 182 Z" fill="#9f9dca" fill-opacity="0.501961" />
<path d="M 75 172 L 79 178 L 99 171 Z" fill="#363461" fill-opacity="0.501961" />
<path d="M 62 180 L 64 189 L 32 188 Z" fill="#454373" fill-opacity="0.501961" />
<path d="M 159 22 L 133 9 L 96 25 Z" fill="#0e0e26" fill-opacity="0.501961" />
<path d="M 107 146 L 121 100 L 91 92 Z" fill="#dcdcea" fill-opacity="0.501961" />
<path d="M 88 123 L 74 101 L 78 90 Z" fill="#918fba" fill-opacity="0.501961" />
<path d="M 217 263 L 189 182 L 227 174 Z" fill="#615f9d" fill-opacity="0.501961" />
<path d="M 248 -16 L 266 207 L 213 161 Z" fill="#f6f1e5" fill-opacity="0.501961" />
<path d="M 93 77 L 116 87 L 88 92 Z" fill="#cac9e7" fill-opacity="0.501961" />
<path d="M 169 160 L 193 100 L 199 169 Z" fill="#fdf7e7" fill-opacity="0.501961" />
<path d="M 151 135 L 164 104 L 142 128 Z" fill="#acabce" fill-opacity="0.501961" />
<path d="M 2 211 L 23 246 L -14 222 Z" fill="#a7a5cc" fill-opacity="0.501961" />
<path d="M 121 165 L 145 157 L 133 120 Z" fill="#9593c1" fill-opacity="0.501961" />
<path d="M 134 -4 L 50 60 L -16 3 Z" fill="#f8f3e6" fill-opacity="0.501961" />
<path d="M 271 68 L 185 27 L 201 102 Z" fill="#f8f2e6" fill-opacity="0.501961" />
<path d="M 190 79 L 167 26 L 187 44 Z" fill="#070712" fill-opacity="0.501961" />
<path d="M 184 120 L 181 103 L 189 92 Z" fill="#3e3b6d" fill-opacity="0.501961" />
<path d="M 62 168 L 97 155 L 91 171 Z" fill="#fffeea" fill-opacity="0.501961" />
</g>
</svg>
